<?xml version="1.0" encoding="UTF-8" standalone="no" ?>
<!DOCTYPE svg PUBLIC "-//W3C//DTD SVG 1.1//EN" "http://www.w3.org/Graphics/SVG/1.1/DTD/svg11.dtd">
<svg xmlns="http://www.w3.org/2000/svg" xmlns:xlink="http://www.w3.org/1999/xlink" version="1.1" width="1280" height="1024" viewBox="0 0 1280 1024" xml:space="preserve">
<desc>Created with Fabric.js 3.6.3</desc>
<defs>
</defs>
<g transform="matrix(1.9692780337941629 0 0 1.9692780337941629 640.0153846153846 512.012312418764)" id="background-logo"  >
<rect style="stroke: none; stroke-width: 1; stroke-dasharray: none; stroke-linecap: butt; stroke-dashoffset: 0; stroke-linejoin: miter; stroke-miterlimit: 4; fill: rgb(255,255,255); fill-opacity: 0; fill-rule: nonzero; opacity: 1;"  paint-order="stroke"  x="-325" y="-260" rx="0" ry="0" width="650" height="520" />
</g>
<g transform="matrix(2.2226500189978666 0 0 2.2226500189978666 640.0153846153846 473.07250997965633)" id="logo-logo"  >
<g style=""  paint-order="stroke"   >
		<g transform="matrix(0.3312942823144148 0 0 -0.3312942823144148 0 0)"  >
<path style="stroke: none; stroke-width: 1; stroke-dasharray: none; stroke-linecap: butt; stroke-dashoffset: 0; stroke-linejoin: miter; stroke-miterlimit: 4; fill: rgb(225,195,84); fill-rule: evenodd; opacity: 1;"  paint-order="stroke"  transform=" translate(-280.0020625, -400)" d="M 479.32 640.297 H 80.6836 V 799.75 h 79.7224 v -79.73 h 79.731 v 79.73 h 79.73 v -79.73 h 79.731 v 79.73 H 479.32 V 720.02 Z M 359.723 484.738 h 79.73 v -293.75 c 24.633 39.325 39.867 91.758 39.867 163.117 h 77.993 C 557.313 194.086 491.273 79.3555 340.793 20.3086 C 320.648 12.4063 300.391 6.00781 280 0.25 C 259.613 6.00781 239.355 12.4063 219.207 20.3086 C 68.7266 79.3555 2.69141 194.086 2.69141 354.105 H 80.6836 c 0 -71.359 15.2344 -123.792 39.8634 -163.113 v 293.746 h 79.726 V 115.539 C 225.379 100.938 252.59 90.2344 280 81.5352 c 27.41 8.6992 54.621 19.4028 79.723 34.0038 z M 559.051 600.43 H 0.953125 V 393.098 H 80.6836 V 523.73 H 240.137 V 138.855 c 12.258 -5.894 25.527 -11.285 39.863 -16.246 c 14.336 4.961 27.609 10.352 39.867 16.246 V 523.73 H 479.32 V 393.098 h 79.731 V 600.43" stroke-linecap="round" />
</g>
</g>
</g>
<g transform="matrix(1.9692780337941629 0 0 1.9692780337941629 640.8134806935336 354.5689680448439)" id="tagline-44b97d3c-0742-4417-beb0-f0541dacee4d-logo-path"  >
<linearGradient id="SVGID_7_4_4_7_124592" gradientUnits="userSpaceOnUse" gradientTransform="matrix(1 0 0 1 1.519999999999996 -13.84)"  x1="0" y1="0" x2="0" y2="23">
<stop offset="0%" style="stop-color:rgb(98,39,116);stop-opacity: 1"/>
<stop offset="100%" style="stop-color:rgb(197,51,100);stop-opacity: 1"/>
</linearGradient>
<path style="stroke: none; stroke-width: 0; stroke-dasharray: none; stroke-linecap: butt; stroke-dashoffset: 0; stroke-linejoin: miter; stroke-miterlimit: 4; fill: url(#SVGID_7_4_4_7_124592); fill-rule: nonzero; opacity: 1;"  paint-order="stroke"  transform=" translate(-100.96, 6.8)" d="M 4.8 0 L 1.52 0 L 1.52 -13.6 L 5.16 -13.6 L 9.9 -3.62 L 14.62 -13.6 L 18.28 -13.6 L 18.28 0 L 14.98 0 L 14.98 -6.94 L 11.72 0 L 8.06 0 L 4.8 -6.94 L 4.8 0 Z M 31.72 0 L 21.3 0 L 21.3 -13.6 L 31.72 -13.6 L 31.72 -10.56 L 24.58 -10.56 L 24.58 -8.22 L 30.54 -8.22 L 30.54 -5.38 L 24.58 -5.38 L 24.58 -3.04 L 31.72 -3.04 L 31.72 0 Z M 40.39 0 L 34.38 0 L 34.38 -13.58 L 40.39 -13.6 Q 40.42 -13.6 40.45 -13.6 L 40.45 -13.6 Q 42.06 -13.61 43.4 -13.11 L 43.4 -13.11 Q 44.76 -12.6 45.66 -11.69 Q 46.57 -10.78 47.07 -9.53 Q 47.57 -8.28 47.57 -6.82 L 47.57 -6.82 Q 47.57 -4.85 46.67 -3.3 Q 45.76 -1.75 44.12 -0.87 Q 42.48 0 40.39 0 L 40.39 0 Z M 37.66 -10.56 L 37.66 -3.04 L 40.39 -3.04 Q 42.11 -3.04 43.18 -4.08 Q 44.25 -5.12 44.25 -6.82 L 44.25 -6.82 Q 44.25 -8.61 43.21 -9.58 Q 42.17 -10.56 40.39 -10.56 L 40.39 -10.56 L 37.66 -10.56 Z M 53.95 -6.8 L 53.95 -6.8 Q 53.95 -8.2 54.5 -9.49 Q 55.06 -10.78 56.03 -11.74 Q 56.99 -12.7 58.38 -13.27 Q 59.77 -13.84 61.33 -13.84 L 61.33 -13.84 Q 63.24 -13.84 64.8 -13.04 Q 66.37 -12.25 67.42 -10.86 L 67.42 -10.86 L 64.59 -9.42 Q 63.53 -10.76 61.29 -10.76 L 61.29 -10.76 Q 59.51 -10.76 58.38 -9.65 Q 57.25 -8.54 57.25 -6.84 L 57.25 -6.84 Q 57.25 -5.19 58.41 -4 Q 59.57 -2.82 61.33 -2.82 L 61.33 -2.82 Q 63.46 -2.82 64.67 -3.96 L 64.67 -3.96 L 64.67 -5.28 L 60.53 -5.28 L 60.53 -7.8 L 67.57 -7.8 L 67.57 -2.76 Q 67.52 -2.66 67.28 -2.37 Q 67.03 -2.09 66.48 -1.63 Q 65.93 -1.16 65.24 -0.76 Q 64.55 -0.35 63.51 -0.05 Q 62.47 0.24 61.35 0.24 L 61.35 0.24 Q 59.71 0.24 58.3 -0.34 Q 56.89 -0.93 55.95 -1.9 Q 55.01 -2.88 54.48 -4.15 Q 53.95 -5.42 53.95 -6.8 Z M 69.37 -6.98 L 69.37 -6.98 L 69.37 -13.6 L 72.65 -13.6 L 72.65 -6.98 Q 72.65 -5 73.48 -3.9 Q 74.31 -2.8 75.85 -2.8 L 75.85 -2.8 Q 77.38 -2.8 78.28 -3.92 Q 79.17 -5.03 79.17 -6.98 L 79.17 -6.98 L 79.17 -13.6 L 82.49 -13.6 L 82.49 -6.98 Q 82.49 -5.32 81.99 -3.96 Q 81.48 -2.59 80.6 -1.67 Q 79.71 -0.76 78.49 -0.26 Q 77.28 0.24 75.85 0.24 L 75.85 0.24 Q 72.92 0.24 71.14 -1.7 Q 69.37 -3.64 69.37 -6.98 Z M 95.26 0 L 84.84 0 L 84.84 -13.6 L 88.13 -13.6 L 88.13 -3.04 L 95.26 -3.04 L 95.26 0 Z M 108.02 0 L 97.6 0 L 97.6 -13.6 L 100.88 -13.6 L 100.88 -3.04 L 108.02 -3.04 L 108.02 0 Z M 118.37 0 L 115.09 0 L 115.09 -13.6 L 118.37 -13.6 L 118.37 0 Z M 125.52 -4.76 L 125.52 -4.76 L 128.78 -4.76 Q 128.79 -4.67 128.82 -4.52 Q 128.86 -4.38 129.05 -4 Q 129.24 -3.63 129.53 -3.35 Q 129.81 -3.07 130.4 -2.83 Q 130.99 -2.6 131.74 -2.6 L 131.74 -2.6 Q 132.75 -2.6 133.25 -2.95 Q 133.74 -3.31 133.74 -3.8 L 133.74 -3.8 Q 133.74 -4.05 133.6 -4.26 Q 133.46 -4.46 133.27 -4.6 Q 133.08 -4.74 132.71 -4.87 Q 132.35 -5 132.08 -5.07 Q 131.81 -5.15 131.34 -5.26 L 131.34 -5.26 Q 129.39 -5.72 128.48 -6.1 L 128.48 -6.1 Q 125.72 -7.25 125.72 -9.52 L 125.72 -9.52 Q 125.72 -10.74 126.46 -11.73 Q 127.2 -12.72 128.46 -13.28 Q 129.73 -13.84 131.26 -13.84 L 131.26 -13.84 Q 132.53 -13.84 133.59 -13.43 Q 134.65 -13.02 135.31 -12.36 Q 135.97 -11.7 136.32 -10.9 Q 136.68 -10.11 136.68 -9.3 L 136.68 -9.3 L 133.42 -9.3 Q 133.42 -9.87 132.81 -10.39 Q 132.2 -10.9 131.22 -10.9 L 131.22 -10.9 Q 130.41 -10.9 129.73 -10.56 Q 129.04 -10.22 129.04 -9.68 L 129.04 -9.68 Q 129.04 -9.22 129.63 -8.95 Q 130.22 -8.68 131.86 -8.26 L 131.86 -8.26 Q 133.71 -7.78 134.53 -7.41 L 134.53 -7.41 Q 136.76 -6.41 136.99 -4.48 L 136.99 -4.48 Q 137.02 -4.24 137.02 -3.98 L 137.02 -3.98 Q 137.02 -2.06 135.5 -0.91 Q 133.98 0.24 131.56 0.24 L 131.56 0.24 Q 130.33 0.24 129.3 -0.07 Q 128.27 -0.39 127.59 -0.9 Q 126.9 -1.42 126.43 -2.08 Q 125.95 -2.74 125.73 -3.42 Q 125.52 -4.1 125.52 -4.76 Z M 142.7 0 L 139.41 0 L 139.41 -13.6 L 142.7 -13.6 L 142.7 0 Z M 149.01 0 L 145.73 0 L 145.73 -13.6 L 149.01 -13.6 L 149.01 -7.62 L 154.21 -13.6 L 158.33 -13.6 L 153.65 -8.12 L 159.33 0 L 155.07 0 L 151.35 -5.62 L 149.01 -3.06 L 149.01 0 Z M 164.79 -10.56 L 159.97 -10.56 L 159.97 -13.6 L 172.93 -13.6 L 172.93 -10.56 L 168.11 -10.56 L 168.11 0 L 164.79 0 L 164.79 -10.56 Z M 185.59 0 L 175.17 0 L 175.17 -13.6 L 185.59 -13.6 L 185.59 -10.56 L 178.45 -10.56 L 178.45 -8.22 L 184.4 -8.22 L 184.4 -5.38 L 178.45 -5.38 L 178.45 -3.04 L 185.59 -3.04 L 185.59 0 Z M 192.26 -10.56 L 187.44 -10.56 L 187.44 -13.6 L 200.4 -13.6 L 200.4 -10.56 L 195.58 -10.56 L 195.58 0 L 192.26 0 L 192.26 -10.56 Z" stroke-linecap="round" />
</g>
<g transform="matrix(1.9692780337941629 0 0 1.9692780337941629 638.5975044310528 265.7398143813682)" id="text-logo-path"  >
<linearGradient id="SVGID_8_6_6_8_124594" gradientUnits="userSpaceOnUse" gradientTransform="matrix(1 0 0 1 0.030000000000001137 -20.88)"  x1="0" y1="0" x2="0" y2="34">
<stop offset="0%" style="stop-color:rgb(98,39,116);stop-opacity: 1"/>
<stop offset="100%" style="stop-color:rgb(197,51,100);stop-opacity: 1"/>
</linearGradient>
<path style="stroke: none; stroke-width: 0; stroke-dasharray: none; stroke-linecap: butt; stroke-dashoffset: 0; stroke-linejoin: miter; stroke-miterlimit: 4; fill: url(#SVGID_8_6_6_8_124594); fill-rule: nonzero; opacity: 1;"  paint-order="stroke"  transform=" translate(-70.08, 10.44)" d="M 7.59 0 L 4.2 0 Q 4.08 0 4.08 -0.15 L 4.08 -0.15 L 4.08 -17.25 L 0.18 -17.25 Q 0.03 -17.25 0.03 -17.4 L 0.03 -17.4 L 0.06 -20.76 Q 0.06 -20.88 0.18 -20.88 L 0.18 -20.88 L 11.58 -20.88 Q 11.73 -20.88 11.73 -20.76 L 11.73 -20.76 L 11.73 -17.4 Q 11.73 -17.25 11.61 -17.25 L 11.61 -17.25 L 7.68 -17.25 L 7.71 -0.15 Q 7.71 0 7.59 0 L 7.59 0 Z M 23.01 0 L 13.32 0 Q 13.2 0 13.2 -0.15 L 13.2 -0.15 L 13.23 -20.76 Q 13.23 -20.88 13.35 -20.88 L 13.35 -20.88 L 22.98 -20.88 Q 23.1 -20.88 23.1 -20.73 L 23.1 -20.73 L 23.1 -17.37 Q 23.1 -17.25 22.98 -17.25 L 22.98 -17.25 L 16.83 -17.25 L 16.83 -12.57 L 22.98 -12.57 Q 23.1 -12.57 23.1 -12.45 L 23.1 -12.45 L 23.13 -9.06 Q 23.13 -8.94 23.01 -8.94 L 23.01 -8.94 L 16.83 -8.94 L 16.83 -3.69 L 23.01 -3.69 Q 23.13 -3.69 23.13 -3.54 L 23.13 -3.54 L 23.13 -0.12 Q 23.13 0 23.01 0 L 23.01 0 Z M 24.48 -0.15 L 24.48 -0.15 L 28.2 -20.76 Q 28.23 -20.88 28.35 -20.88 L 28.35 -20.88 L 32.7 -20.88 Q 32.82 -20.88 32.85 -20.76 L 32.85 -20.76 L 36.42 -0.15 Q 36.45 0 36.3 0 L 36.3 0 L 32.97 0 Q 32.85 0 32.82 -0.15 L 32.82 -0.15 L 32.49 -2.34 L 28.41 -2.34 L 28.08 -0.15 Q 28.05 0 27.93 0 L 27.93 0 L 24.6 0 Q 24.48 0 24.48 -0.15 Z M 30.36 -13.98 L 29.01 -5.55 L 31.89 -5.55 L 30.66 -13.98 L 30.48 -15.09 L 30.36 -13.98 Z M 41.82 0 L 38.43 0 Q 38.31 0 38.31 -0.15 L 38.31 -0.15 L 38.37 -20.76 Q 38.37 -20.88 38.49 -20.88 L 38.49 -20.88 L 42.15 -20.88 Q 42.27 -20.88 42.36 -20.76 L 42.36 -20.76 L 45.09 -16.8 L 47.82 -20.76 Q 47.91 -20.88 48.03 -20.88 L 48.03 -20.88 L 51.72 -20.88 Q 51.84 -20.88 51.84 -20.76 L 51.84 -20.76 L 51.9 -0.15 Q 51.9 0 51.78 0 L 51.78 0 L 48.39 0 Q 48.27 0 48.27 -0.15 L 48.27 -0.15 L 48.24 -15.45 L 45.09 -10.89 L 41.97 -15.45 L 41.94 -0.15 Q 41.94 0 41.82 0 L 41.82 0 Z M 62.37 0 L 58.98 0 Q 58.86 0 58.86 -0.15 L 58.86 -0.15 L 58.89 -20.76 Q 58.89 -20.88 59.04 -20.88 L 59.04 -20.88 L 62.37 -20.88 Q 62.52 -20.88 62.52 -20.76 L 62.52 -20.76 L 62.49 -12.6 L 66.99 -12.6 L 66.99 -20.76 Q 66.99 -20.88 67.11 -20.88 L 67.11 -20.88 L 70.44 -20.88 Q 70.59 -20.88 70.59 -20.76 L 70.59 -20.76 L 70.65 -0.15 Q 70.65 0 70.5 0 L 70.5 0 L 67.14 0 Q 66.99 0 66.99 -0.15 L 66.99 -0.15 L 66.99 -8.97 L 62.49 -8.97 L 62.49 -0.15 Q 62.49 0 62.37 0 L 62.37 0 Z M 82.92 0 L 73.23 0 Q 73.11 0 73.11 -0.15 L 73.11 -0.15 L 73.14 -20.76 Q 73.14 -20.88 73.26 -20.88 L 73.26 -20.88 L 82.89 -20.88 Q 83.01 -20.88 83.01 -20.73 L 83.01 -20.73 L 83.01 -17.37 Q 83.01 -17.25 82.89 -17.25 L 82.89 -17.25 L 76.74 -17.25 L 76.74 -12.57 L 82.89 -12.57 Q 83.01 -12.57 83.01 -12.45 L 83.01 -12.45 L 83.04 -9.06 Q 83.04 -8.94 82.92 -8.94 L 82.92 -8.94 L 76.74 -8.94 L 76.74 -3.69 L 82.92 -3.69 Q 83.04 -3.69 83.04 -3.54 L 83.04 -3.54 L 83.04 -0.12 Q 83.04 0 82.92 0 L 82.92 0 Z M 89.22 0 L 85.83 0 Q 85.71 0 85.71 -0.15 L 85.71 -0.15 L 85.77 -20.76 Q 85.77 -20.88 85.89 -20.88 L 85.89 -20.88 L 89.55 -20.88 Q 89.67 -20.88 89.76 -20.76 L 89.76 -20.76 L 92.49 -16.8 L 95.22 -20.76 Q 95.31 -20.88 95.43 -20.88 L 95.43 -20.88 L 99.12 -20.88 Q 99.24 -20.88 99.24 -20.76 L 99.24 -20.76 L 99.3 -0.15 Q 99.3 0 99.18 0 L 99.18 0 L 95.79 0 Q 95.67 0 95.67 -0.15 L 95.67 -0.15 L 95.64 -15.45 L 92.49 -10.89 L 89.37 -15.45 L 89.34 -0.15 Q 89.34 0 89.22 0 L 89.22 0 Z M 107.31 0 L 101.94 0 Q 101.82 0 101.82 -0.15 L 101.82 -0.15 L 101.88 -20.76 Q 101.88 -20.88 102 -20.88 L 102 -20.88 L 107.76 -20.88 Q 109.47 -20.88 110.82 -20.05 Q 112.17 -19.23 112.95 -17.88 Q 113.73 -16.53 113.73 -14.94 L 113.73 -14.94 Q 113.73 -13.65 113.14 -12.54 Q 112.56 -11.43 111.75 -10.74 L 111.75 -10.74 Q 112.62 -9.87 113.1 -8.73 Q 113.58 -7.59 113.58 -6.33 L 113.58 -6.33 Q 113.58 -4.59 112.74 -3.15 Q 111.9 -1.71 110.47 -0.85 Q 109.05 0 107.31 0 L 107.31 0 Z M 105.48 -17.31 L 105.48 -12.6 L 107.76 -12.6 Q 108.81 -12.6 109.45 -13.33 Q 110.1 -14.07 110.1 -14.94 L 110.1 -14.94 Q 110.1 -15.9 109.41 -16.61 Q 108.72 -17.31 107.76 -17.31 L 107.76 -17.31 L 105.48 -17.31 Z M 105.48 -8.97 L 105.45 -3.66 L 107.31 -3.66 Q 108.39 -3.66 109.17 -4.46 Q 109.95 -5.25 109.95 -6.33 L 109.95 -6.33 Q 109.95 -7.41 109.17 -8.19 Q 108.39 -8.97 107.31 -8.97 L 107.31 -8.97 L 105.48 -8.97 Z M 119.25 0 L 115.86 0 Q 115.74 0 115.74 -0.15 L 115.74 -0.15 L 115.8 -20.76 Q 115.8 -20.88 115.92 -20.88 L 115.92 -20.88 L 121.98 -20.88 Q 123.6 -20.88 124.96 -20.09 Q 126.33 -19.29 127.14 -17.95 Q 127.95 -16.62 127.95 -14.94 L 127.95 -14.94 Q 127.95 -13.83 127.62 -12.95 Q 127.29 -12.06 126.84 -11.45 Q 126.39 -10.83 126.03 -10.53 L 126.03 -10.53 Q 127.65 -8.73 127.65 -6.3 L 127.65 -6.3 L 127.68 -0.15 Q 127.68 0 127.53 0 L 127.53 0 L 124.14 0 Q 124.02 0 124.02 -0.09 L 124.02 -0.09 L 124.02 -6.3 Q 124.02 -7.38 123.25 -8.17 Q 122.49 -8.97 121.38 -8.97 L 121.38 -8.97 L 119.4 -8.97 L 119.37 -0.15 Q 119.37 0 119.25 0 L 119.25 0 Z M 119.4 -17.28 L 119.4 -12.57 L 121.98 -12.57 Q 122.91 -12.57 123.63 -13.26 Q 124.35 -13.95 124.35 -14.94 L 124.35 -14.94 Q 124.35 -15.9 123.64 -16.59 Q 122.94 -17.28 121.98 -17.28 L 121.98 -17.28 L 119.4 -17.28 Z M 140.01 0 L 130.32 0 Q 130.2 0 130.2 -0.15 L 130.2 -0.15 L 130.23 -20.76 Q 130.23 -20.88 130.35 -20.88 L 130.35 -20.88 L 139.98 -20.88 Q 140.1 -20.88 140.1 -20.73 L 140.1 -20.73 L 140.1 -17.37 Q 140.1 -17.25 139.98 -17.25 L 139.98 -17.25 L 133.83 -17.25 L 133.83 -12.57 L 139.98 -12.57 Q 140.1 -12.57 140.1 -12.45 L 140.1 -12.45 L 140.13 -9.06 Q 140.13 -8.94 140.01 -8.94 L 140.01 -8.94 L 133.83 -8.94 L 133.83 -3.69 L 140.01 -3.69 Q 140.13 -3.69 140.13 -3.54 L 140.13 -3.54 L 140.13 -0.12 Q 140.13 0 140.01 0 L 140.01 0 Z" stroke-linecap="round" />
</g>
</svg>